<svg width="92" height="28" fill="none" xmlns="http://www.w3.org/2000/svg"><path d="M85.406 0H5.56c-.457.019-.914.037-1.353.13A4.33 4.33 0 002.93.558a4.242 4.242 0 00-1.096.82 4.79 4.79 0 00-.805 1.116 4.34 4.34 0 00-.42 1.303c-.073.466-.11.912-.128 1.378 0 .204 0 .428-.018.632v16.269c0 .204 0 .428.018.633.018.465.037.93.128 1.377.073.465.22.894.42 1.303.201.41.476.782.805 1.117a4.73 4.73 0 001.096.819c.42.223.84.353 1.28.428.456.074.913.112 1.352.13h81.197c.457-.018.914-.037 1.352-.13a4.63 4.63 0 001.298-.428 4.243 4.243 0 001.096-.82c.33-.316.585-.706.805-1.116.2-.41.347-.856.42-1.303.091-.465.11-.912.128-1.377V5.192c-.019-.465-.037-.93-.128-1.377a4.525 4.525 0 00-.42-1.303 4.314 4.314 0 00-.805-1.117c-.31-.335-.694-.596-1.096-.819A4.628 4.628 0 0088.11.149a10.742 10.742 0 00-1.352-.13h-.621C85.899 0 85.662 0 85.406 0z" fill="#B6B6B6"/><path d="M6.2 27.325h-.603c-.383-.02-.822-.038-1.26-.112a3.947 3.947 0 01-1.115-.372 3.536 3.536 0 01-.95-.708 3.706 3.706 0 01-.695-.968 3.927 3.927 0 01-.366-1.135 6.774 6.774 0 01-.11-1.284c0-.15-.018-.633-.018-.633V5.826s0-.484.019-.614c0-.354.036-.838.11-1.285.073-.428.2-.8.365-1.154.183-.353.402-.689.694-.968.274-.279.603-.52.95-.707A3.757 3.757 0 014.337.726a8.257 8.257 0 011.26-.112h81.179c.348 0 .805.037 1.261.112a4.77 4.77 0 011.134.372 3.876 3.876 0 011.644 1.675c.183.354.293.726.366 1.136.073.428.11.874.11 1.303v17.515c-.019.41-.037.856-.11 1.284-.073.428-.183.8-.366 1.154a3.58 3.58 0 01-.694.95 3.98 3.98 0 01-.95.707 3.704 3.704 0 01-1.134.372c-.438.075-.877.093-1.26.112h-1.334L6.2 27.324z" fill="#000"/><path d="M34.4 18.855h-3.216l-.786 2.178H28.99l3.144-8.171h1.334l3.216 8.171h-1.48l-.804-2.178zm-2.814-1.116h2.394l-.86-2.346a19.198 19.198 0 01-.347-1.08l-.329 1.062-.859 2.364zm5.666-1.303c0-.447-.018-.95-.037-1.49h1.28c.055.261.073.503.091.764.53-.596 1.133-.894 1.828-.894.402 0 .767.093 1.114.298.348.205.622.521.823.968.2.447.31 1.005.31 1.675 0 .708-.127 1.322-.365 1.824-.238.503-.566.894-1.005 1.136-.42.26-.914.39-1.48.39-.403 0-.805-.074-1.207-.204v2.55l-1.37.112v-7.13h.018zm3.6 3.108c.274-.372.42-.93.42-1.675 0-.689-.11-1.173-.347-1.47-.237-.298-.53-.466-.913-.466-.275 0-.512.056-.731.186-.22.13-.44.298-.64.521v3.258c.128.074.292.13.475.167.183.038.366.056.53.056.512 0 .914-.186 1.206-.577zm2.632-3.108c0-.447-.019-.95-.037-1.49h1.28c.054.261.073.503.09.764.53-.596 1.134-.894 1.828-.894.402 0 .768.093 1.115.298.348.205.622.521.823.968.2.447.31 1.005.31 1.675 0 .708-.128 1.322-.365 1.824-.238.503-.567.894-1.005 1.136-.42.26-.914.39-1.48.39-.403 0-.805-.074-1.207-.204v2.55l-1.37.112v-7.13h.018zm3.6 3.108c.274-.372.42-.93.42-1.675 0-.689-.11-1.173-.347-1.47-.237-.298-.53-.466-.914-.466-.274 0-.511.056-.73.186-.22.13-.44.298-.64.521v3.258c.128.074.292.13.475.167.183.038.365.056.53.056.512 0 .932-.186 1.206-.577zm4.313 1.098a3.281 3.281 0 01-1.352-1.433c-.31-.614-.475-1.359-.475-2.196 0-.912.182-1.694.548-2.327.365-.633.859-1.117 1.499-1.433.621-.317 1.334-.484 2.12-.484.456 0 .895.056 1.315.149.42.111.804.242 1.17.428l-.347 1.08c-.731-.354-1.426-.522-2.084-.522-.548 0-1.041.13-1.462.373-.42.242-.749.595-.968 1.06-.238.466-.347 1.043-.347 1.694 0 .577.09 1.099.274 1.545.182.447.457.8.84 1.08.384.26.877.39 1.462.39.274 0 .53-.018.804-.074.275-.056.512-.111.75-.205v-1.656h-1.846v-1.08h3.18v3.444c-.457.223-.932.39-1.444.502a6.974 6.974 0 01-1.498.168c-.841 0-1.536-.168-2.139-.503zm9.886.391a5.06 5.06 0 01-.092-.8c-.219.26-.475.465-.822.651-.329.186-.713.26-1.151.26-.348 0-.658-.073-.932-.204a1.547 1.547 0 01-.677-.614 1.948 1.948 0 01-.255-1.005c0-.596.2-1.061.62-1.415.421-.354 1.116-.521 2.084-.521.366 0 .731.019 1.079.074v-.111c0-.54-.11-.912-.33-1.136-.219-.223-.548-.335-.968-.335-.292 0-.603.037-.932.13a4.842 4.842 0 00-.877.317l-.22-1.005a4.97 4.97 0 01.969-.317 5.578 5.578 0 011.261-.149c.512 0 .95.075 1.316.242.365.168.64.429.84.82.202.39.311.912.311 1.563v2.42c0 .26.019.633.037 1.135h-1.261zm-.804-1.135c.292-.13.511-.317.694-.521V18.24a9.421 9.421 0 00-.914-.056c-.566 0-.95.093-1.17.28-.219.186-.328.428-.328.744 0 .298.073.521.237.67.165.15.366.224.64.224.274.018.548-.056.84-.205zm3.107-.317v-7.184l1.353-.112v7.055c0 .26.036.446.128.558.091.112.219.167.42.167.091 0 .201-.018.366-.055l.164 1.005a2.488 2.488 0 01-.475.13 2.703 2.703 0 01-.53.056c-.95-.056-1.426-.577-1.426-1.62zm3.399 0v-7.184l1.352-.112v7.055c0 .26.037.446.128.558.091.112.22.167.42.167.092 0 .201-.018.366-.055l.164 1.005a2.49 2.49 0 01-.475.13 2.703 2.703 0 01-.53.056c-.95-.056-1.425-.577-1.425-1.62zm8.024-1.414h-3.911c.055 1.266.658 1.917 1.79 1.917.275 0 .567-.037.86-.112.292-.074.566-.167.84-.279l.293.95c-.676.334-1.426.502-2.248.502-.64 0-1.17-.13-1.608-.372a2.297 2.297 0 01-.987-1.061c-.22-.466-.33-1.005-.33-1.657 0-.67.11-1.247.348-1.73.238-.485.548-.857.969-1.118.42-.26.895-.39 1.443-.39.567 0 1.042.13 1.408.409.383.26.657.633.84 1.08.183.446.274.949.274 1.489v.372h.019zm-1.334-.875c-.019-.484-.147-.856-.366-1.098a1.094 1.094 0 00-.859-.372c-.347 0-.64.13-.859.372-.237.242-.384.614-.457 1.08h2.54v.018zm2.355-.819c0-.335-.018-.838-.037-1.526h1.28c.018.167.036.372.055.614.018.242.036.428.036.577.164-.26.31-.484.475-.67a1.77 1.77 0 01.53-.447c.201-.112.439-.168.695-.168.219 0 .384.02.548.075l-.164 1.21a1.57 1.57 0 00-.44-.056c-.328 0-.602.075-.84.242-.237.167-.493.447-.767.819v3.909h-1.353v-4.58h-.018zm4.352 7.054a2.347 2.347 0 01-.493-.13l.255-1.005c.092.019.202.056.348.074.146.019.274.038.402.038.603 0 1.06-.391 1.352-1.192l.092-.223-2.194-6.124h1.463l1.114 3.425c.183.577.293 1.042.348 1.34.11-.447.219-.875.365-1.321l1.115-3.462h1.37l-2.192 6.16c-.202.578-.44 1.062-.677 1.415-.237.354-.53.615-.84.8-.33.168-.713.261-1.188.261-.22 0-.439-.018-.64-.056zM32.936 8.674v1.545l-.694.056v-.968h-2.924v.912l-.676.056V8.674h.329c.2-.428.347-.968.457-1.582.11-.614.164-1.285.182-1.992h2.687v3.574h.64zm-2.85-1.377c-.092.54-.22 1.005-.384 1.377h1.882V5.733h-1.316a9.576 9.576 0 01-.183 1.564zm4.129 1.805c-.31-.168-.53-.428-.694-.745-.165-.316-.238-.688-.238-1.117 0-.446.092-.837.256-1.172a1.72 1.72 0 01.731-.763 2.22 2.22 0 011.133-.28c.42 0 .768.093 1.078.261.293.168.53.428.695.745.164.316.237.688.237 1.098 0 .446-.09.837-.255 1.172-.165.335-.42.596-.731.764-.311.186-.695.279-1.115.279-.439.018-.804-.075-1.097-.242zm1.846-.521c.201-.13.347-.317.457-.559a2.33 2.33 0 00.146-.819c0-.298-.036-.577-.128-.8-.091-.242-.22-.428-.42-.559-.201-.149-.439-.204-.75-.204-.292 0-.53.074-.73.204a1.42 1.42 0 00-.457.577c-.11.242-.147.503-.147.8 0 .299.055.578.147.82.091.242.237.428.438.577.201.149.439.205.731.205.275-.038.512-.094.713-.242zm2.816.539a1.66 1.66 0 01-.695-.726c-.164-.316-.237-.688-.237-1.135 0-.447.091-.856.256-1.191.164-.335.402-.596.712-.763.311-.187.658-.261 1.06-.261.22 0 .439.019.64.074a3 3 0 01.567.224l-.183.558c-.347-.186-.676-.279-.987-.279-.274 0-.53.056-.713.186-.2.13-.347.317-.457.559-.11.241-.146.52-.146.856 0 .316.055.577.146.819.092.242.256.41.457.558.201.13.457.205.768.205.329 0 .658-.075 1.005-.242l.164.54a2.07 2.07 0 01-.566.204c-.201.056-.42.075-.676.075-.439-.019-.804-.093-1.115-.26zm2.668.243c-.073-.019-.128-.038-.183-.056l.073-.577a.456.456 0 00.22.037.272.272 0 00.2-.074.647.647 0 00.129-.224c.036-.093.073-.242.091-.41.11-.688.201-1.674.238-2.977h2.832v4.225h-.712V5.733H42.97c-.055 1.098-.128 1.917-.238 2.494-.055.28-.11.503-.2.67-.092.168-.184.298-.312.373a.877.877 0 01-.456.111c-.074 0-.147 0-.22-.018zM46.224 5.1h.713v4.207h-.712V5.1zm5.719 3.574v1.545l-.695.056v-.968h-2.924v.912l-.676.056V8.674h.329c.201-.428.347-.968.457-1.582.11-.614.164-1.285.183-1.992h2.686v3.574h.64zm-2.851-1.377c-.092.54-.22 1.005-.384 1.377h1.882V5.733h-1.316a9.565 9.565 0 01-.182 1.564zm8.37 2.01h-.804l-1.133-1.862h-.366v1.862h-.713V7.445h-.365L52.93 9.307h-.804l1.443-2.29-.676-1.098a.673.673 0 00-.183-.205.384.384 0 00-.219-.055.48.48 0 00-.22.055l-.145-.558a1.08 1.08 0 01.438-.074c.201 0 .366.037.493.13.128.093.238.223.348.41l.767 1.265h.256V5.156h.713v1.731h.256l.767-1.266c.11-.186.22-.316.347-.41.128-.092.293-.13.494-.13.164 0 .31.02.439.075l-.147.558a.48.48 0 00-.219-.055.48.48 0 00-.22.055.675.675 0 00-.182.205L56 7.017l1.462 2.29zM61.338 5.1l-1.499 3.183-.11.205c-.11.223-.219.39-.329.521a.963.963 0 01-.347.28 1.087 1.087 0 01-.438.092c-.183 0-.33-.018-.439-.074l.073-.559a.6.6 0 00.274.056.897.897 0 00.22-.037.486.486 0 00.182-.112c.055-.056.11-.149.165-.26l.055-.093L57.5 5.1h.786l1.188 2.494L60.587 5.1h.75zm3.343 4.207V6.998c0-.297.019-.632.037-1.005l-2.083 3.314h-.786V5.1h.658v2.4c0 .26 0 .54-.019.856L64.535 5.1h.823v4.207h-.677zm-1.608-4.58a.83.83 0 01-.347-.316 1.098 1.098 0 01-.146-.41h.512c.054.317.237.466.53.466.292 0 .475-.149.548-.465h.511a1.1 1.1 0 01-.146.41c-.073.13-.2.223-.347.316-.146.093-.347.13-.567.13a1.2 1.2 0 01-.548-.13z" fill="#fff"/><path fill-rule="evenodd" clip-rule="evenodd" d="M18.941 5.119h-7.584c-3.582 0-4.88 1.34-4.88 4.97v7.724c0 3.649 1.316 4.97 4.88 4.97h7.584c3.582 0 4.88-1.34 4.88-4.97V10.09c.018-3.63-1.298-4.97-4.88-4.97z" fill="#C8102E"/><path d="M9.911 13.96h.457v2.308h-.457v-.93H8.87v.93h-.457V13.96h.457v.931h1.04v-.93zm2.596 1.322c0 .372-.183.577-.512.577-.33 0-.512-.205-.512-.596V13.96h-.457v1.322c0 .652.348 1.024.969 1.024s.987-.373.987-1.043V13.96h-.457v1.322h-.018zm5.318.26l-.512-1.582h-.384l-.511 1.583-.494-1.583h-.493l.786 2.308h.383l.512-1.526.512 1.526h.384l.785-2.308h-.475l-.493 1.583zm1.809-.26h.84v-.428h-.84v-.465h1.224v-.429h-1.663v2.308h1.718v-.428h-1.26v-.558h-.019zm1.81.986h.456V13.96h-.457v2.308zm-7.567-.483l-.2.483H13.2l.987-2.308h.402l.987 2.308h-.475l-.201-.483h-1.024zm.165-.41h.694l-.347-.819-.347.82zm1.114-4.355c-1.59 0-2.887-1.322-2.887-2.942h.402c0 1.396 1.115 2.532 2.485 2.532 1.371 0 2.486-1.136 2.486-2.532h.402c0 1.62-1.298 2.941-2.888 2.941z" fill="#fff"/></svg>