<svg width="83" height="28" fill="none" xmlns="http://www.w3.org/2000/svg"><path d="M75.562 0H6.542L5.79.001c-.21.002-.419.006-.63.01a8.808 8.808 0 00-1.376.123A4.42 4.42 0 00.562 2.523a4.653 4.653 0 00-.429 1.326A9.198 9.198 0 00.01 5.245c-.006.213-.007.428-.01.641V22c.003.216.004.426.01.643.006.467.047.934.123 1.395.076.462.22.91.43 1.327.207.417.48.797.808 1.126.324.332.699.61 1.11.821.41.212.85.36 1.304.44.455.076.914.117 1.375.123.212.005.42.008.63.008l.752.001h69.02l.744-.001c.21 0 .424-.003.633-.008a8.89 8.89 0 001.372-.123c.455-.08.896-.228 1.309-.44a4.469 4.469 0 001.92-1.947c.207-.418.35-.865.425-1.327.076-.461.119-.928.127-1.395.003-.217.003-.427.003-.643.005-.253.005-.505.005-.763V6.648c0-.256 0-.509-.005-.762 0-.213 0-.428-.003-.641a9.569 9.569 0 00-.127-1.396A4.473 4.473 0 0079.62.571a4.592 4.592 0 00-1.31-.438A8.813 8.813 0 0076.94.01l-.633-.009L75.562 0z" fill="#A6A6A6"/><path d="M5.793 27.273c-.21 0-.413-.002-.62-.007a8.573 8.573 0 01-1.283-.114 3.993 3.993 0 01-1.137-.382 3.71 3.71 0 01-.958-.708 3.707 3.707 0 01-.7-.974 4.032 4.032 0 01-.373-1.155 8.788 8.788 0 01-.114-1.307c-.005-.147-.01-.637-.01-.637V5.887s.006-.482.01-.624c.005-.437.043-.874.113-1.305.066-.403.191-.794.373-1.159.179-.36.414-.69.697-.974A3.822 3.822 0 013.887.733c.426-.07.856-.109 1.287-.114L5.793.61H76.3l.627.009a8.39 8.39 0 011.275.113c.398.07.785.198 1.146.382a3.869 3.869 0 012.024 2.837c.071.434.111.874.12 1.315.002.197.002.41.002.62.005.262.005.51.005.762v14.588c0 .254 0 .5-.005.75 0 .227 0 .434-.003.648a9.007 9.007 0 01-.118 1.292 3.815 3.815 0 01-1.067 2.13 3.68 3.68 0 01-.96.713 3.98 3.98 0 01-1.144.383c-.424.07-.853.108-1.283.114-.2.005-.411.007-.615.007l-.744.002-69.768-.002z" fill="#000"/><path d="M16.994 14.151c.008-.582.16-1.152.442-1.658a3.427 3.427 0 011.175-1.236c-.31-.45-.719-.82-1.194-1.08a3.434 3.434 0 00-1.544-.424c-1.152-.123-2.27.7-2.856.7-.599 0-1.503-.688-2.476-.667a3.59 3.59 0 00-1.781.54 3.68 3.68 0 00-1.288 1.361c-1.327 2.334-.337 5.764.934 7.651.636.924 1.38 1.956 2.352 1.92.951-.04 1.307-.617 2.455-.617 1.139 0 1.472.617 2.464.593 1.021-.017 1.665-.928 2.278-1.86a7.694 7.694 0 001.042-2.156 3.293 3.293 0 01-1.456-1.227 3.371 3.371 0 01-.547-1.84zM15.12 8.512c.557-.68.831-1.552.765-2.433a3.379 3.379 0 00-2.201 1.156 3.282 3.282 0 00-.785 2.343c.426.005.847-.089 1.231-.273a2.82 2.82 0 00.99-.793zm13.903 10.406h-3.248l-.78 2.34H23.62l3.076-8.656h1.429l3.076 8.656h-1.399l-.78-2.34zm-2.911-1.08h2.574l-1.27-3.796h-.035l-1.27 3.797zm11.732.265c0 1.961-1.033 3.221-2.593 3.221a2.078 2.078 0 01-1.133-.267 2.123 2.123 0 01-.82-.837h-.03v3.126h-1.275v-8.4h1.234v1.05h.023c.2-.35.49-.638.837-.835a2.176 2.176 0 011.141-.28c1.577 0 2.616 1.266 2.616 3.222zm-1.31 0c0-1.278-.65-2.118-1.642-2.118-.974 0-1.63.858-1.63 2.118 0 1.271.656 2.123 1.63 2.123.991 0 1.641-.834 1.641-2.123zm8.146 0c0 1.961-1.032 3.221-2.591 3.221a2.079 2.079 0 01-1.134-.267 2.124 2.124 0 01-.82-.837h-.03v3.126H38.83v-8.4h1.234v1.05h.023c.2-.35.49-.638.837-.835a2.176 2.176 0 011.141-.28c1.577 0 2.616 1.266 2.616 3.222zm-1.31 0c0-1.278-.65-2.118-1.641-2.118-.974 0-1.63.858-1.63 2.118 0 1.271.656 2.123 1.63 2.123.991 0 1.641-.834 1.641-2.123zm5.831.743c.095.859.915 1.422 2.037 1.422 1.075 0 1.848-.563 1.848-1.337 0-.672-.466-1.075-1.57-1.35l-1.105-.27c-1.564-.384-2.29-1.128-2.29-2.334 0-1.494 1.28-2.52 3.1-2.52 1.8 0 3.034 1.026 3.076 2.52h-1.288c-.077-.864-.78-1.385-1.807-1.385s-1.73.527-1.73 1.295c0 .612.45.972 1.547 1.248l.94.234c1.747.42 2.473 1.134 2.473 2.4 0 1.62-1.27 2.633-3.289 2.633-1.889 0-3.165-.99-3.247-2.556H49.2zm7.982-5.393v1.494h1.181v1.026h-1.181v3.479c0 .54.236.792.756.792.14-.002.28-.012.42-.03v1.02a3.452 3.452 0 01-.71.06c-1.257 0-1.747-.48-1.747-1.704v-3.617h-.903v-1.026h.903v-1.494h1.28zm1.864 4.65c0-1.986 1.152-3.233 2.946-3.233 1.801 0 2.947 1.247 2.947 3.233 0 1.991-1.14 3.234-2.947 3.234-1.806 0-2.946-1.243-2.946-3.234zm4.594 0c0-1.362-.614-2.166-1.648-2.166-1.033 0-1.647.81-1.647 2.166 0 1.368.614 2.166 1.647 2.166 1.034 0 1.648-.798 1.648-2.166zm2.351-3.156h1.216v1.074h.03c.082-.336.275-.632.547-.84a1.47 1.47 0 01.947-.3c.147 0 .293.015.436.048v1.212a1.757 1.757 0 00-.572-.078 1.267 1.267 0 00-.993.415 1.31 1.31 0 00-.336 1.037v3.743h-1.275v-6.311zm9.055 4.458c-.171 1.145-1.27 1.932-2.674 1.932-1.807 0-2.929-1.23-2.929-3.204 0-1.98 1.128-3.263 2.875-3.263 1.719 0 2.8 1.2 2.8 3.113v.444H70.73v.078a1.67 1.67 0 00.439 1.277 1.617 1.617 0 001.232.51c.301.03.604-.042.862-.202.259-.16.46-.4.573-.685h1.21zm-4.31-1.884h3.106a1.539 1.539 0 00-.418-1.139 1.495 1.495 0 00-1.106-.463 1.552 1.552 0 00-1.12.466 1.6 1.6 0 00-.462 1.136zM25.912 7.115c.176.091.315.226.418.405.102.175.154.37.154.582 0 .343-.132.626-.395.85-.259.225-.586.337-.982.337-.381 0-.697-.11-.949-.331a1.17 1.17 0 01-.406-.85h.492a.736.736 0 00.268.52c.16.128.358.193.595.193.171 0 .323-.03.457-.091a.75.75 0 00.308-.263.673.673 0 00.115-.382.707.707 0 00-.212-.53.747.747 0 00-.543-.206h-.462v-.44h.462a.674.674 0 00.48-.176.607.607 0 00.195-.462.568.568 0 00-.223-.468c-.149-.122-.341-.183-.577-.183-.21 0-.39.06-.543.177a.667.667 0 00-.263.45h-.48c.027-.315.16-.573.4-.775.244-.205.539-.308.886-.308.373 0 .68.103.92.308a.967.967 0 01.365.782c0 .121-.019.24-.057.353a.947.947 0 01-.166.297.859.859 0 01-.257.211zm4.008-.97h.388v3.081h-.406l-.051-.468a1.496 1.496 0 01-.532.4 1.658 1.658 0 01-.68.137c-.453 0-.832-.152-1.137-.457-.305-.308-.457-.692-.457-1.152 0-.46.152-.843.457-1.147a1.535 1.535 0 011.137-.462c.252 0 .48.047.686.142.21.095.387.229.531.4l.063-.474zm-2.058 2.357c.217.216.49.325.817.325.328 0 .598-.109.812-.325.213-.217.32-.49.32-.816 0-.327-.107-.6-.32-.816a1.09 1.09 0 00-.812-.325 1.11 1.11 0 00-1.137 1.141c0 .323.107.595.32.816zm5.407-.873a.75.75 0 01.371.285.756.756 0 01.143.45.792.792 0 01-.274.617.962.962 0 01-.674.245h-1.549v-3.08h1.532c.255 0 .462.073.622.222.16.144.24.33.24.559a.823.823 0 01-.194.536.715.715 0 01-.217.166zm-.069-.617a.371.371 0 00-.125-.296.466.466 0 00-.326-.114h-.989v.816h.989a.468.468 0 00.326-.109.382.382 0 00.125-.297zm-.422 1.758a.568.568 0 00.257-.057.429.429 0 00.246-.394.44.44 0 00-.246-.4.58.58 0 00-.263-.056H31.76v.907h1.018zm4.418-2.625h.389v3.081h-.406l-.052-.468a1.497 1.497 0 01-.531.4 1.658 1.658 0 01-.68.137c-.453 0-.832-.152-1.137-.457-.305-.308-.457-.692-.457-1.152 0-.46.152-.843.457-1.147a1.535 1.535 0 011.137-.462c.251 0 .48.047.686.142.21.095.386.229.531.4l.063-.474zm-2.057 2.357c.217.216.49.325.817.325.327 0 .598-.109.811-.325.214-.217.32-.49.32-.816 0-.327-.106-.6-.32-.816a1.09 1.09 0 00-.811-.325 1.109 1.109 0 00-1.137 1.141c0 .323.106.595.32.816zm5.55-2.357h.474v3.081h-.474V7.863h-1.652v1.363h-.474v-3.08h.474v1.26h1.652v-1.26zm3.834 0v.44h-1.149v2.641H42.9V6.584h-1.15v-.439h2.772zm3.114 0h.388v3.081h-.405l-.052-.468a1.496 1.496 0 01-.531.4 1.658 1.658 0 01-.68.137 1.54 1.54 0 01-1.137-.457c-.305-.308-.457-.692-.457-1.152 0-.46.152-.843.457-1.147a1.535 1.535 0 011.137-.462c.251 0 .48.047.685.142.21.095.387.229.532.4l.063-.474zM45.58 8.502c.217.216.49.325.817.325.327 0 .598-.109.811-.325.214-.217.32-.49.32-.816 0-.327-.106-.6-.32-.816a1.09 1.09 0 00-.811-.325 1.11 1.11 0 00-1.137 1.141c0 .323.106.595.32.816zm6.915.724l-1.04-1.38h-.411v1.38h-.469v-1.38h-.411l-1.04 1.38h-.595L49.747 7.6l-1.103-1.455h.565l.955 1.267h.411V6.145h.469v1.267h.411l.954-1.267h.566L51.872 7.6l1.217 1.626h-.594zm3.37-3.081h.268v3.081h-.457V7.024l-1.8 2.202h-.28v-3.08h.463V8.33l1.806-2.185zm3.63 0v.44h-1.149v2.641h-.474V6.584h-1.149v-.439h2.772zm2.855 0h.268v3.081h-.457V7.024l-1.8 2.202h-.28v-3.08h.463V8.33l1.805-2.185zM66.703 7.6c.282.152.423.403.423.753a.825.825 0 01-.154.49.982.982 0 01-.423.332c-.18.08-.381.12-.606.12-.327 0-.598-.084-.811-.251a.937.937 0 01-.355-.674h.44c.03.145.11.259.24.343.13.08.292.12.486.12a.854.854 0 00.509-.143c.133-.095.2-.22.2-.377a.448.448 0 00-.172-.36.625.625 0 00-.422-.142H65.6v-.393h.458c.16 0 .287-.04.382-.12a.4.4 0 00.149-.32.41.41 0 00-.177-.342.768.768 0 00-.469-.131.757.757 0 00-.428.114.496.496 0 00-.218.308h-.44a.867.867 0 01.166-.445.949.949 0 01.389-.297 1.33 1.33 0 01.543-.108c.316 0 .577.081.782.245a.756.756 0 01.309.616c0 .297-.114.518-.343.662z" fill="#fff"/></svg>