<svg width="95" height="28" fill="none" xmlns="http://www.w3.org/2000/svg"><g clip-path="url(#clip0_1871_1123)"><path d="M90.676 27.744h-87c-1.915 0-3.48-1.56-3.48-3.468V3.468C.195 1.56 1.76 0 3.675 0h87c1.914 0 3.48 1.56 3.48 3.468v20.808c0 1.907-1.566 3.468-3.48 3.468z" fill="#100F0D"/><path d="M90.676 0h-87C1.76 0 .195 1.56.195 3.468v20.808c0 1.907 1.565 3.468 3.48 3.468h87c1.914 0 3.48-1.56 3.48-3.468V3.468C94.156 1.56 92.59 0 90.676 0zm0 .554a2.922 2.922 0 012.923 2.914v20.808a2.922 2.922 0 01-2.923 2.913h-87a2.921 2.921 0 01-2.924-2.913V3.468A2.921 2.921 0 013.675.554h87z" fill="#A2A2A1"/><path d="M14.614 13.472l-7.41 7.838.002.005a2 2 0 001.933 1.477 2 2 0 001.015-.275l.024-.013 8.34-4.797-3.904-4.235" fill="#EB3131"/><path d="M22.111 12.138l-.007-.005-3.6-2.08-4.058 3.597 4.071 4.056 3.582-2.06a1.995 1.995 0 00.012-3.508" fill="#F6B60B"/><path d="M7.204 6.435a1.948 1.948 0 00-.068.513v13.85c0 .177.023.349.069.512l7.665-7.637-7.666-7.238z" fill="#5778C5"/><path d="M14.67 13.872l3.835-3.82-8.332-4.814a2.011 2.011 0 00-1.034-.285 2 2 0 00-1.934 1.48v.002l7.464 7.437z" fill="#3BAD49"/></g><path d="M68.469 18.939h1.192v-7.96H68.47v7.96zm10.738-5.093l-1.366 3.451H77.8l-1.419-3.45h-1.284l2.127 4.822-1.213 2.683h1.244l3.278-7.506h-1.326zm-6.76 4.189c-.392 0-.936-.195-.936-.677 0-.614.678-.85 1.264-.85.524 0 .77.113 1.089.267a1.444 1.444 0 01-1.418 1.26zm.143-4.363c-.863 0-1.757.379-2.127 1.219l1.058.44c.226-.44.647-.584 1.09-.584.616 0 1.243.369 1.253 1.024v.082a2.643 2.643 0 00-1.243-.307c-1.14 0-2.302.625-2.302 1.792 0 1.065.935 1.751 1.983 1.751.802 0 1.243-.358 1.521-.778h.04v.614h1.152v-3.051c0-1.413-1.058-2.202-2.425-2.202zm-7.368 1.143h-1.696v-2.728h1.696c.891 0 1.397.735 1.397 1.364 0 .617-.506 1.364-1.397 1.364zm-.03-3.836h-2.858v7.96h1.192v-3.016h1.665c1.321 0 2.62-.954 2.62-2.472 0-1.519-1.299-2.472-2.62-2.472zm-15.579 7.057c-.823 0-1.513-.687-1.513-1.631 0-.954.69-1.652 1.513-1.652.813 0 1.452.698 1.452 1.652 0 .944-.639 1.63-1.452 1.63zm1.37-3.744h-.042c-.267-.318-.782-.605-1.43-.605-1.36 0-2.605 1.19-2.605 2.718 0 1.518 1.246 2.698 2.604 2.698.649 0 1.164-.288 1.431-.616h.041v.39c0 1.036-.556 1.59-1.451 1.59-.73 0-1.184-.523-1.37-.964l-1.039.43c.299.719 1.092 1.6 2.409 1.6 1.4 0 2.584-.82 2.584-2.82v-4.862h-1.133v.44zm1.955 4.647h1.194v-7.96h-1.194v7.96zm2.954-2.626c-.03-1.047.813-1.58 1.42-1.58.474 0 .876.236 1.01.574l-2.43 1.006zm3.706-.903c-.226-.605-.916-1.723-2.326-1.723-1.4 0-2.563 1.097-2.563 2.708 0 1.518 1.152 2.708 2.696 2.708 1.246 0 1.967-.76 2.265-1.2l-.926-.616c-.309.451-.731.749-1.339.749-.607 0-1.04-.277-1.317-.82l3.633-1.498-.123-.308zm-28.949-.892v1.148h2.759c-.083.647-.299 1.118-.628 1.447-.401.4-1.03.84-2.13.84-1.7 0-3.027-1.363-3.027-3.056 0-1.692 1.328-3.057 3.026-3.057.916 0 1.585.36 2.08.82l.813-.81c-.69-.656-1.606-1.159-2.893-1.159-2.326 0-4.282 1.888-4.282 4.206 0 2.318 1.956 4.206 4.282 4.206 1.256 0 2.203-.41 2.944-1.18.762-.76.998-1.826.998-2.687 0-.267-.02-.513-.061-.718h-3.88zm7.079 3.518c-.824 0-1.534-.677-1.534-1.641 0-.975.71-1.642 1.534-1.642.823 0 1.533.667 1.533 1.642 0 .964-.71 1.64-1.533 1.64zm0-4.35c-1.503 0-2.728 1.14-2.728 2.709 0 1.559 1.225 2.708 2.728 2.708 1.502 0 2.727-1.15 2.727-2.708 0-1.57-1.224-2.708-2.727-2.708zm5.95 4.35c-.823 0-1.533-.677-1.533-1.641 0-.975.71-1.642 1.533-1.642.824 0 1.534.667 1.534 1.642 0 .964-.71 1.64-1.534 1.64zm0-4.35c-1.503 0-2.727 1.14-2.727 2.709 0 1.559 1.224 2.708 2.727 2.708s2.728-1.15 2.728-2.708c0-1.57-1.225-2.708-2.728-2.708zM27.823 8.22c-.258 0-.508-.08-.75-.24a1.237 1.237 0 01-.503-.713l.47-.195c.06.208.158.37.296.485.138.115.3.173.487.173a.799.799 0 00.539-.195.614.614 0 00.226-.485.602.602 0 00-.232-.479.837.837 0 00-.556-.195h-.33v-.48h.29a.75.75 0 00.501-.166.554.554 0 00.199-.446.495.495 0 00-.193-.413.756.756 0 00-.478-.15c-.328 0-.55.166-.665.496l-.476-.2c.075-.205.207-.387.397-.546.19-.16.438-.24.744-.24.343 0 .628.1.855.298a.96.96 0 01.341.755c0 .367-.171.64-.514.819v.022a1.1 1.1 0 01.46.356c.122.16.183.35.183.569 0 .338-.125.618-.375.838-.25.221-.555.332-.916.332" fill="#fff"/><path d="M27.822 8.22v-.064c-.245 0-.481-.075-.715-.229-.228-.15-.387-.373-.476-.677l-.062.017.025.06.47-.196-.026-.059-.061.018c.062.217.167.391.317.516a.8.8 0 00.528.187.86.86 0 00.58-.21.678.678 0 00.249-.533.667.667 0 00-.255-.528.902.902 0 00-.597-.21h-.266V5.96h.227c.213 0 .397-.06.541-.182a.618.618 0 00.221-.494.559.559 0 00-.217-.462.818.818 0 00-.517-.165c-.351-.003-.608.19-.726.54l.06.02.025-.059-.475-.2-.025.059.06.021c.07-.192.196-.365.378-.519.177-.148.408-.224.703-.224.33 0 .597.094.813.282a.895.895 0 01.319.707c-.002.347-.154.59-.48.762l-.034.018v.104l.039.016c.177.074.32.185.435.336a.85.85 0 01.169.53c-.002.322-.116.58-.354.791a1.27 1.27 0 01-.873.315v.128a1.4 1.4 0 00.959-.348c.262-.231.396-.532.395-.886a.98.98 0 00-.194-.607 1.167 1.167 0 00-.488-.377l-.024.06h.064v-.023h-.064l.03.056c.359-.184.55-.487.548-.875a1.024 1.024 0 00-.363-.803c-.24-.21-.543-.314-.897-.314-.317 0-.582.084-.785.255a1.354 1.354 0 00-.416.573l-.02.057.53.224.063.026.023-.064c.113-.312.3-.45.605-.453a.69.69 0 01.438.137.43.43 0 01.169.362.49.49 0 01-.176.397.69.69 0 01-.46.152h-.354v.607h.394c.203 0 .371.06.515.18.142.122.208.26.21.43a.55.55 0 01-.205.438.735.735 0 01-.497.18.672.672 0 01-.446-.159.89.89 0 01-.276-.454l-.02-.068-.535.223-.053.022.016.054c.096.327.273.58.529.748.25.166.513.25.785.25V8.22m2.743-1.65h1.331l-.654-1.799h-.022l-.655 1.8zm-1.134 1.56l1.51-3.989h.58l1.51 3.99h-.57l-.386-1.081h-1.683L30 8.13h-.57" fill="#fff"/><path d="M30.566 6.571v.064h1.422l-.7-1.927h-.112l-.7 1.927h.09V6.57l.06.022.655-1.8-.06-.022v.064h.022V4.77l-.06.022.623 1.714h-1.24v.064l.06.022-.06-.022zm-1.134 1.56l.06.022 1.493-3.948h.494l1.46 3.862h-.432l-.386-1.081H30.35l-.392 1.081h-.525v.064l.06.022-.06-.022v.063h.614l.392-1.08h1.593l.386 1.08h.708l-1.558-4.116h-.67L29.34 8.194h.092v-.063m4.632-.491h1.034a.615.615 0 00.481-.206.662.662 0 00.184-.451.642.642 0 00-.19-.448.65.65 0 00-.498-.204h-1.011v1.31zm0-1.788h.934a.602.602 0 00.466-.192.611.611 0 00.176-.421.612.612 0 00-.17-.418.576.576 0 00-.45-.19h-.956v1.221zm-.515 2.279V4.14h1.449c.313 0 .584.104.812.31a1 1 0 01.344.777c0 .19-.049.357-.147.502a.934.934 0 01-.395.328v.022c.198.067.36.182.487.346a.9.9 0 01.19.568c0 .327-.12.598-.36.814a1.24 1.24 0 01-.854.323H33.55z" fill="#fff"/><path d="M34.063 7.64v.064h1.035a.681.681 0 00.528-.227.726.726 0 00.2-.494.707.707 0 00-.206-.492.715.715 0 00-.545-.223h-1.076v1.436h.064V7.64h.064V6.395h.948c.192 0 .336.06.451.183a.578.578 0 01.173.405c0 .148-.054.28-.168.409a.55.55 0 01-.433.185h-1.035v.063h.064-.064zm0-1.788v.064h.934a.669.669 0 00.514-.213.675.675 0 00.193-.464.676.676 0 00-.187-.46.641.641 0 00-.497-.21H34v1.347h.063v-.064h.064V4.696h.893c.171 0 .3.055.402.168a.55.55 0 01.154.375.54.54 0 01-.16.378.539.539 0 01-.419.171h-.934v.064h.064-.064zm-.514 2.279h.064V4.205h1.384c.3 0 .552.097.77.293a.934.934 0 01.323.73.807.807 0 01-.137.466.87.87 0 01-.368.306l-.037.017v.109l.043.015c.187.063.337.17.457.324a.837.837 0 01.177.53c0 .31-.112.56-.34.765v.001a1.18 1.18 0 01-.81.306h-1.526v.064h.064-.064v.063h1.526c.342 0 .644-.114.896-.339.253-.226.382-.519.382-.86a.965.965 0 00-.204-.608 1.078 1.078 0 00-.517-.367l-.02.06h.064v-.022h-.064l.026.058a.996.996 0 00.42-.35.931.931 0 00.16-.538c0-.327-.123-.608-.365-.824a1.24 1.24 0 00-.856-.326h-1.512v4.116h.064v-.063zM37.68 6.57h1.33l-.654-1.799h-.022l-.655 1.8zm-1.135 1.56l1.51-3.989h.58l1.51 3.99h-.57l-.386-1.081h-1.683l-.391 1.08h-.57" fill="#fff"/><path d="M37.679 6.571v.064H39.1l-.7-1.927h-.112l-.7 1.927h.09V6.57l.06.022.655-1.8-.06-.022v.064h.023V4.77l-.06.022.623 1.714h-1.24v.064l.06.022-.06-.022zm-1.135 1.56l.06.022 1.494-3.948h.493l1.461 3.862h-.433l-.385-1.081H37.46l-.392 1.081h-.525v.064l.06.022-.06-.022v.063h.615l.392-1.08h1.592l.386 1.08h.708l-1.558-4.116h-.67l-1.557 4.116h.092v-.063m4.117-.001V4.142h.514v1.711h2.002v-1.71h.514V8.13h-.514v-1.8h-2.002v1.8h-.514z" fill="#fff"/><path d="M40.661 8.13h.064V4.206h.387v1.71h2.13v-1.71h.386v3.862h-.387v-1.8h-2.13v1.8h-.45v.064h.064-.064v.063h.579v-1.8h1.874v1.8h.641V4.078h-.642v1.71H41.24v-1.71h-.643v4.116h.064v-.063zm5.214 0h-.514V4.633h-1.119v-.49h2.75v.49h-1.117V8.13z" fill="#fff"/><path d="M45.873 8.13v-.063h-.45V4.568h-1.118v-.363h2.623v.363H45.81v3.563h.063v-.064.064h.064V4.696h1.118v-.618h-2.878v.618h1.118v3.498h.642v-.063h-.064zm2.117-1.56h1.332l-.655-1.799h-.022l-.654 1.8zm-1.134 1.56l1.51-3.989h.58l1.51 3.99h-.57L49.5 7.05h-1.682l-.392 1.08h-.57z" fill="#fff"/><path d="M47.992 6.571v.064h1.422l-.7-1.927h-.112L47.9 6.635h.09V6.57l.061.022.654-1.8-.06-.022v.064h.023V4.77l-.06.022.623 1.714h-1.24v.064l.06.022-.06-.022zm-1.134 1.56l.06.022 1.493-3.948h.493l1.461 3.862h-.432l-.386-1.081h-1.773l-.392 1.081h-.524v.064l.06.022-.06-.022v.063h.614l.392-1.08h1.593l.385 1.08h.708l-1.557-4.116h-.67l-1.558 4.116h.093v-.063m6.67-1.828v1.828h-.515V6.303h-.022l-1.554 1.828h-.671v-.023l1.688-1.927-1.621-2.017V4.14h.626l1.532 1.94h.022V4.14h.515v1.94h.022l1.532-1.94h.626v.023L54.087 6.18l1.688 1.927v.023h-.67L53.55 6.303h-.022" fill="#fff"/><path d="M53.53 6.303h-.065v1.764h-.386V6.24h-.117l-1.554 1.827h-.64v.064h.063v-.022h-.064l.048.042 1.724-1.969-1.641-2.04h-.064v.063h.595l1.532 1.94h.118v-1.94h.386v1.94h.117l1.532-1.94h.596v-.064h-.064l-1.641 2.041 1.723 1.969.048-.042h-.064v.022h.064v-.064h-.64L53.58 6.24h-.115v.063h.064v.064h.022v-.064l-.049.041 1.574 1.85h.764v-.109l-1.669-1.906 1.602-1.993v-.108h-.72L53.5 6.04l.05.04v-.064h-.022v.063h.064V4.078h-.641V6.08h.064v-.063h-.023v.063l.05-.04-1.55-1.962h-.722v.108l1.602 1.993-1.669 1.906v.109h.765l1.573-1.85-.049-.04v.063h.023v-.064h-.064v1.891h.642v-1.89h-.064v.063-.064m5.822-2.162v3.99h-.514V5.646l.022-.769h-.022L56.8 8.131h-.536V4.14h.514v2.335l-.022.769h.022l1.946-3.104h.626z" fill="#fff"/><path d="M59.352 4.141h-.064v3.926H58.9v-2.42l.022-.768.002-.066h-.123l-2.035 3.254h-.438V4.205h.387v2.27l-.022.768-.002.066h.123l1.946-3.104h.59v-.064h-.063.064v-.063h-.662L56.725 7.21l.055.034V7.18h-.022v.064l.064.002.021-.77v-2.4h-.641v4.117h.636l2.053-3.283-.054-.034v.064h.023v-.064l-.064-.002-.023.769v2.552h.643V4.077h-.064v.063m2.183 3.99h-.514V4.633h-1.118v-.49h2.75v.49h-1.117V8.13z" fill="#fff"/><path d="M61.536 8.13v-.063h-.45V4.568h-1.118v-.363h2.622v.363h-1.118v3.563h.064v-.064.064h.064V4.696h1.118v-.618H59.84v.618h1.118v3.498h.642v-.063h-.064zm4.774-3.989v3.99h-.514V5.646l.023-.769h-.023l-2.035 3.254h-.536V4.14h.513v2.335l-.021.769h.021l1.947-3.104h.626z" fill="#fff"/><path d="M66.31 4.141h-.064v3.926h-.387v-2.42l.022-.768.002-.066h-.124l-2.035 3.254h-.437V4.205h.386v2.27l-.022.768-.001.066h.123l1.946-3.104h.59v-.064h-.063.063v-.063h-.661L63.683 7.21l.054.034V7.18h-.022v.064l.064.002.022-.77v-2.4h-.641v4.117h.635l2.054-3.283-.054-.034v.064h.022v-.064l-.063-.002-.023.769v2.552h.642V4.077h-.064v.063m3.089 4.08c-.258 0-.508-.08-.75-.24a1.237 1.237 0 01-.503-.713l.47-.195c.06.208.158.37.296.485.138.115.3.173.487.173a.799.799 0 00.538-.195.614.614 0 00.227-.485.603.603 0 00-.232-.479.84.84 0 00-.556-.195h-.33v-.48h.29a.751.751 0 00.501-.166.554.554 0 00.199-.446.495.495 0 00-.193-.413.754.754 0 00-.478-.15c-.329 0-.55.166-.665.496l-.476-.2c.074-.205.207-.387.397-.546.19-.16.438-.24.744-.24.342 0 .627.1.855.298a.96.96 0 01.34.755c0 .367-.17.64-.513.819v.022a1.1 1.1 0 01.46.356c.122.16.182.35.182.569 0 .338-.124.618-.374.838-.25.221-.555.332-.916.332" fill="#fff"/><path d="M69.395 8.22v-.064c-.244 0-.48-.075-.714-.229-.229-.15-.386-.373-.477-.677l-.06.017.023.06.47-.196-.025-.059-.061.018c.062.217.167.391.317.516a.799.799 0 00.527.187c.222.001.42-.07.581-.21a.68.68 0 00.249-.533.669.669 0 00-.255-.528.9.9 0 00-.597-.21h-.266V5.96h.226c.213 0 .397-.06.542-.182a.62.62 0 00.221-.494.558.558 0 00-.217-.462l-.002-.002.002.002a.82.82 0 00-.517-.165c-.352-.003-.608.19-.726.54l.06.02.025-.059-.475-.2-.025.059.06.021c.07-.192.196-.365.378-.519.177-.148.407-.224.703-.224.33 0 .597.094.813.282a.895.895 0 01.319.707c-.002.347-.154.59-.48.762l-.035.018v.104l.04.016c.176.074.32.185.434.336a.848.848 0 01.17.53c-.002.322-.117.58-.354.791a1.27 1.27 0 01-.874.315v.128a1.4 1.4 0 00.96-.348c.261-.231.396-.532.395-.886a.977.977 0 00-.194-.607 1.166 1.166 0 00-.488-.377l-.025.06h.064v-.023h-.064l.03.056c.36-.184.551-.487.549-.875 0-.32-.123-.594-.363-.803-.24-.21-.543-.314-.897-.314-.317 0-.582.084-.786.255a1.36 1.36 0 00-.415.573l-.021.057.531.224.063.026.022-.064c.114-.312.3-.45.606-.453.178 0 .322.046.438.137a.43.43 0 01.169.362.492.492 0 01-.176.397.69.69 0 01-.46.152h-.354v.607h.394c.203 0 .37.06.514.18.143.122.21.26.21.43a.549.549 0 01-.205.438.734.734 0 01-.497.18.671.671 0 01-.446-.159.89.89 0 01-.276-.454l-.02-.068-.535.223-.052.022.016.054a1.3 1.3 0 00.529.748c.25.166.513.25.784.25V8.22" fill="#fff"/><defs><clipPath id="clip0_1871_1123"><path fill="#fff" transform="translate(.195)" d="M0 0h94.171v27.883H0z"/></clipPath></defs></svg>