<svg width="21" height="21" fill="none" xmlns="http://www.w3.org/2000/svg"><path fill-rule="evenodd" clip-rule="evenodd" d="M6.723.063C7.79.013 8.13.003 10.846.003s3.056.012 4.122.06c1.065.048 1.793.218 2.429.464a4.92 4.92 0 011.77 1.155c.51.5.903 1.103 1.153 1.77.248.636.417 1.364.466 2.427.049 1.068.06 1.408.06 4.124 0 2.716-.012 3.056-.06 4.123-.048 1.063-.218 1.79-.466 2.427a4.905 4.905 0 01-1.152 1.772c-.5.509-1.105.902-1.771 1.152-.636.248-1.364.417-2.427.466-1.068.049-1.408.06-4.124.06-2.716 0-3.056-.012-4.123-.06-1.063-.048-1.79-.218-2.427-.466a4.906 4.906 0 01-1.772-1.152 4.9 4.9 0 01-1.154-1.771c-.246-.636-.415-1.364-.464-2.427-.05-1.069-.06-1.409-.06-4.124 0-2.716.012-3.056.06-4.122.048-1.065.218-1.793.464-2.429a4.906 4.906 0 011.155-1.77A4.902 4.902 0 014.295.526C4.931.281 5.659.112 6.722.063h.001zm8.164 1.8c-1.055-.048-1.371-.058-4.041-.058-2.67 0-2.986.01-4.041.058-.975.044-1.505.207-1.857.344-.467.182-.8.398-1.15.748a3.102 3.102 0 00-.748 1.15c-.137.352-.3.882-.344 1.857-.048 1.055-.058 1.37-.058 4.04s.01 2.987.058 4.042c.044.975.207 1.504.344 1.857.16.434.416.827.748 1.15.322.332.716.587 1.15.747.352.138.882.3 1.857.345 1.055.048 1.37.058 4.04.058 2.672 0 2.987-.01 4.042-.058.975-.045 1.504-.207 1.857-.345.466-.181.8-.397 1.15-.747a3.1 3.1 0 00.747-1.15c.138-.353.3-.882.345-1.857.048-1.055.058-1.371.058-4.041 0-2.67-.01-2.986-.058-4.041-.045-.975-.207-1.505-.345-1.857a3.105 3.105 0 00-.747-1.15 3.102 3.102 0 00-1.15-.748c-.353-.137-.882-.3-1.857-.344zM9.569 13.086a3.335 3.335 0 102.4-6.224 3.337 3.337 0 00-2.4 6.224zM7.21 6.368a5.14 5.14 0 117.27 7.27 5.14 5.14 0 01-7.27-7.27zm9.915-.74a1.215 1.215 0 10-1.668-1.768 1.215 1.215 0 001.668 1.768z" fill="#fff"/></svg>