<svg width="168" height="16" fill="none" xmlns="http://www.w3.org/2000/svg"><path d="M63.49 5.353c.55-.31 1.197-.54 1.942-.69a11.54 11.54 0 012.307-.22c.755 0 1.37.09 1.822.28.453.19.81.43 1.046.73.238.3.4.64.486 1 .086.36.108.73.108 1.09 0 .81-.011 1.6-.065 2.38-.054.78-.065 1.5-.065 2.2 0 .51.01.97.065 1.42.043.45.13.85.237 1.24h-1.294l-.453-1.42h-.108c-.129.19-.29.37-.496.55-.194.18-.431.34-.711.49-.27.13-.593.25-.97.36a5.16 5.16 0 01-1.24.15c-.465 0-.907-.07-1.306-.21a3.165 3.165 0 01-1.046-.58 2.796 2.796 0 01-.69-.9 2.71 2.71 0 01-.258-1.2c0-.6.129-1.09.398-1.5.26-.4.626-.72 1.111-.96.464-.24 1.046-.4 1.715-.51.657-.1 1.401-.15 2.2-.15h.593c.194 0 .398.01.593.04.043-.4.064-.78.064-1.09 0-.75-.161-1.27-.485-1.56-.323-.3-.906-.45-1.758-.45-.237 0-.517.01-.787.06-.291.03-.582.09-.873.15a6.95 6.95 0 00-.852.22c-.27.09-.496.19-.712.3l-.517-1.22zm3.095 8.15c.4 0 .777-.04 1.1-.15.324-.1.593-.22.82-.39.226-.15.42-.33.582-.52.162-.19.27-.37.334-.55v-1.69c-.205-.01-.42-.03-.625-.03-.205 0-.42-.01-.626-.01-.452 0-.884.03-1.326.07-.442.04-.809.13-1.143.27-.323.13-.593.3-.787.52-.194.22-.291.51-.291.84 0 .48.172.87.55 1.17.377.31.852.47 1.412.47zm29.104-3.83c0-1.72.399-3.04 1.24-3.96.82-.91 2.016-1.38 3.569-1.38.82 0 1.531.12 2.135.37.615.25 1.111.61 1.499 1.08.399.46.69 1.03.873 1.69.194.66.292 1.39.292 2.19 0 1.72-.421 3.04-1.241 3.96-.819.91-2.016 1.38-3.569 1.38-.82 0-1.53-.12-2.135-.37a3.716 3.716 0 01-1.499-1.08c-.388-.46-.679-1.03-.873-1.69-.194-.65-.291-1.39-.291-2.19zm1.822 0c0 .51.043 1 .162 1.48.108.48.27.88.517 1.24.227.34.55.63.917.85.367.21.841.33 1.37.33 1.984.01 2.986-1.29 2.986-3.91 0-.52-.043-1.03-.161-1.5a3.882 3.882 0 00-.518-1.24 2.38 2.38 0 00-.916-.84c-.367-.21-.842-.31-1.37-.31-1.995-.02-2.987 1.29-2.987 3.9zm26.796-3.27c.485-.64 1.014-1.11 1.596-1.38.582-.27 1.305-.39 2.2-.39 1.337 0 2.372.4 3.105 1.21.723.81 1.079 2.01 1.079 3.6 0 1.83-.421 3.21-1.262 4.15-.841.93-2.017 1.41-3.526 1.41-1.618 0-2.815-.51-3.623-1.54-.809-1.03-1.208-2.65-1.208-4.86 0-1.17.065-2.16.173-2.98.129-.82.301-1.53.55-2.1.237-.57.528-1.02.873-1.36.345-.34.722-.61 1.164-.81.432-.19.906-.33 1.402-.42.518-.07 1.068-.15 1.65-.21.755-.07 1.359-.15 1.79-.24.431-.09.776-.24 1.035-.48l.194 1.47c-.14.12-.302.22-.485.3-.183.08-.388.15-.625.21-.238.06-.55.1-.885.15-.334.05-.744.07-1.196.1-.626.04-1.176.1-1.65.21-.464.1-.884.3-1.23.58-.334.28-.614.7-.808 1.24-.194.54-.335 1.24-.399 2.13 0 .01.086.01.086.01zm.194 3.3c0 .51.065 1 .173 1.48.108.48.291.9.528 1.24.237.36.55.64.938.84.388.21.82.3 1.337.3 1.003 0 1.758-.33 2.243-1 .485-.67.723-1.66.723-2.98 0-.51-.044-.99-.141-1.42a3.001 3.001 0 00-.485-1.12 2.38 2.38 0 00-.841-.73 2.797 2.797 0 00-1.208-.25c-1.143-.01-1.973.3-2.501.93-.507.62-.766 1.52-.766 2.71zm10.923-4.35c.55-.31 1.197-.54 1.941-.69.744-.15 1.521-.22 2.308-.22.755 0 1.369.09 1.822.28.453.19.809.43 1.046.73s.399.64.485 1c.087.36.108.73.108 1.09 0 .81-.011 1.6-.064 2.38-.044.78-.065 1.5-.065 2.2 0 .51.011.97.065 1.42.043.45.129.85.237 1.24h-1.294l-.453-1.42h-.108c-.129.19-.291.37-.496.55a3.37 3.37 0 01-.712.49c-.269.13-.593.25-.97.36-.367.09-.776.15-1.24.15-.464 0-.906-.07-1.305-.21a3.165 3.165 0 01-1.046-.58 2.804 2.804 0 01-.69-.9 2.717 2.717 0 01-.259-1.2c0-.6.13-1.09.388-1.5.259-.4.626-.72 1.111-.96.464-.24 1.046-.4 1.715-.51.657-.1 1.401-.15 2.199-.15h.593c.195 0 .399.01.594.04.043-.4.064-.78.064-1.09 0-.75-.162-1.27-.485-1.56-.324-.3-.906-.45-1.758-.45-.237 0-.517.01-.787.06-.291.03-.582.09-.873.15-.302.06-.583.13-.852.22-.27.09-.518.19-.712.3l-.507-1.22zm3.117 8.15c.399 0 .776-.04 1.1-.15.323-.1.593-.22.819-.39.227-.15.431-.33.582-.52.141-.19.259-.37.335-.55v-1.69c-.205-.01-.421-.03-.626-.03-.205 0-.42-.01-.625-.01-.453 0-.884.03-1.327.07-.442.04-.808.13-1.143.27-.323.13-.593.3-.787.52-.194.22-.291.51-.291.84 0 .48.173.87.55 1.17.367.31.83.47 1.413.47zm-77.175-7.49h-3.429v8.75H56.18v-8.75h-3.43v-1.42h8.606v1.42h.01zm20.618 6.83c-.26.19-.593.36-1.014.51-.42.15-.884.22-1.402.22-.614 0-1.132-.1-1.553-.33-.42-.21-.754-.51-1.002-.87-.26-.36-.432-.78-.55-1.24a6.492 6.492 0 01-.162-1.47c0-2.61 1.035-3.91 3.116-3.91.464 0 .906.04 1.305.15.399.1.776.24 1.11.42l.497-1.41a5.788 5.788 0 00-1.327-.43c-.485-.1-1.078-.15-1.79-.15-1.53 0-2.717.46-3.526 1.38-.82.91-1.229 2.23-1.229 3.96 0 .79.076 1.53.259 2.19.172.66.431 1.21.809 1.69.366.46.851.82 1.434 1.08.582.25 1.304.37 2.145.37.658 0 1.294-.07 1.888-.24a5.11 5.11 0 001.552-.69l-.56-1.23zm9.952 1.92h2.168l-3.666-4.6-1.144-.81.917-.67 3.397-4.09h-1.909l-3.504 4.31-.938.28v-4.6h-1.758v10.16h1.758v-4.57h1.002l3.677 4.59zm25.729 0h1.714V4.593h-1.757l-2.88 4.51-.657 1.21h-.043l-.626-1.18-3.073-4.56h-1.725v10.16h1.628v-6.04l-.173-1.92h.076l.722 1.56 2.761 3.99h.614l2.653-3.99.787-1.56h.108l-.129 1.93v6.06zm36.069 0h1.758V4.593h-1.758v4.26h-4.96v-4.26h-1.758v10.16h1.758v-4.5h4.96v4.51zm12.099 0H168l-3.666-4.6-1.143-.81.916-.67 3.397-4.09h-1.909l-3.515 4.31-.938.28v-4.6h-1.758v10.16h1.758v-4.57h1.003l3.688 4.59zM0 10.353c0-.52.032-1.05.065-1.54h36.263l-4.151 6.04H.496a21.114 21.114 0 01-.496-4.5zm1.11-5.99c-.42 1.12-.776 2.35-.948 3.7h36.694l2.556-3.7H1.111z" fill="#fff"/></svg>