<svg width="21" height="21" fill="none" xmlns="http://www.w3.org/2000/svg"><path d="M.845 9.703c0-5.574 4.367-9.7 10-9.7 5.635 0 10 4.126 10 9.7 0 5.574-4.365 9.7-10 9.7-1.012 0-1.982-.133-2.895-.383a.8.8 0 00-.533.037l-1.985.878a.8.8 0 01-1.123-.708l-.055-1.779a.799.799 0 00-.269-.57c-1.945-1.74-3.14-4.26-3.14-7.175zM7.778 7.88L4.84 12.54c-.28.448.268.952.69.633l3.155-2.395a.6.6 0 01.723-.002l2.336 1.752a1.5 1.5 0 002.17-.4l2.937-4.66c.282-.448-.268-.951-.689-.633L13.006 9.23a.6.6 0 01-.723.002L9.947 7.478a1.5 1.5 0 00-2.169.4v.001z" fill="#fff"/></svg>