<svg width="24" height="21" fill="none" xmlns="http://www.w3.org/2000/svg"><g fill="#fff"><mask id="a"><path d="M8.969 18.791c-.71 0-.59-.268-.835-.945l-2.09-6.874 16.081-9.54"/></mask><path d="M8.134 17.846l-.957.291.008.025.009.025.94-.34zm-2.09-6.874l-.51-.86-.674.4.228.75.957-.29zm2.925 6.82a.812.812 0 01-.098-.005c-.01-.001.017.001.062.019a.612.612 0 01.306.26c.02.035.027.055.021.04a1.825 1.825 0 01-.03-.1c-.03-.106-.08-.29-.156-.5l-1.88.681c.046.128.074.231.112.366.03.102.09.323.209.527.152.258.383.47.697.592a2.1 2.1 0 00.757.12v-2zm.122-.236L7 10.68l-1.913.581 2.09 6.875 1.913-.581zm-2.536-5.724l16.08-9.54-1.02-1.72-16.08 9.54 1.02 1.72z" mask="url(#a)"/><path d="M8.969 18.791c.548 0 .79-.25 1.096-.548L12.99 15.4l-3.647-2.199"/><path d="M9.342 13.202l8.836 6.528c1.009.557 1.737.269 1.988-.936l3.597-16.95C24.13.367 23.2-.303 22.235.135L1.113 8.28C-.328 8.858-.32 9.663.85 10.02l5.42 1.693 12.55-7.917c.592-.36 1.136-.166.69.23"/></g></svg>