<svg width="18" height="21" fill="none" xmlns="http://www.w3.org/2000/svg"><path d="M9.684.02C10.775.003 11.86.013 12.943.003c.065 1.276.524 2.575 1.458 3.477.932.924 2.25 1.348 3.533 1.49v3.356c-1.202-.039-2.41-.289-3.5-.806-.476-.215-.918-.492-1.351-.775-.006 2.435.01 4.867-.016 7.292a6.344 6.344 0 01-1.127 3.284c-1.09 1.599-2.982 2.64-4.925 2.673-1.192.068-2.383-.257-3.398-.856-1.684-.992-2.868-2.81-3.04-4.76a13.939 13.939 0 01-.01-1.24 6.247 6.247 0 012.151-4.134c1.38-1.202 3.314-1.774 5.124-1.436.017 1.235-.033 2.468-.033 3.702-.827-.267-1.793-.192-2.515.31-.53.348-.929.86-1.137 1.458-.173.422-.124.892-.114 1.34.199 1.368 1.514 2.518 2.917 2.393.931-.01 1.823-.55 2.308-1.34.157-.277.333-.56.342-.886.082-1.49.05-2.975.06-4.466.006-3.36-.01-6.71.015-10.059z" fill="#fff"/></svg>