<svg width="21" height="21" fill="none" xmlns="http://www.w3.org/2000/svg"><path fill-rule="evenodd" clip-rule="evenodd" d="M15.428 11.988c-.25-.124-1.473-.723-1.701-.806-.228-.082-.394-.123-.56.125-.166.247-.643.805-.787.97-.146.166-.29.186-.54.063-.248-.125-1.05-.386-2-1.23-.74-.656-1.24-1.467-1.385-1.715-.145-.248-.016-.382.109-.505.112-.111.249-.29.373-.434.125-.145.166-.248.249-.414.084-.165.042-.31-.02-.433-.063-.124-.56-1.344-.768-1.84-.202-.482-.407-.416-.56-.424a10.811 10.811 0 00-.477-.009.914.914 0 00-.663.31c-.228.248-.87.847-.87 2.066 0 1.218.89 2.396 1.015 2.562.125.165 1.754 2.666 4.25 3.739a14.28 14.28 0 001.419.52c.596.19 1.139.163 1.567.1.478-.072 1.473-.6 1.68-1.178.207-.579.207-1.075.145-1.178-.062-.103-.228-.165-.477-.29zm-4.54 6.17h-.004a8.295 8.295 0 01-4.213-1.15l-.302-.178-3.133.819.836-3.04-.196-.312A8.188 8.188 0 012.61 9.914c.002-4.542 3.715-8.237 8.28-8.237 2.211 0 4.29.858 5.852 2.415a8.156 8.156 0 012.422 5.827c-.002 4.542-3.715 8.238-8.277 8.238zM17.93 2.91A9.897 9.897 0 0014.7.754a9.935 9.935 0 00-3.814-.751C5.399.003.93 4.449.929 9.913a9.85 9.85 0 001.329 4.954L.845 20.003l5.279-1.378a9.987 9.987 0 004.76 1.206h.003c5.488 0 9.956-4.446 9.958-9.91a9.81 9.81 0 00-.751-3.796A9.847 9.847 0 0017.93 2.91" fill="#fff"/></svg>